<svg width="97" height="70" viewBox="0 0 97 70" fill="none" xmlns="http://www.w3.org/2000/svg">
<path d="M39.9998 67.2222V58.8988C39.0682 59.3071 38.034 59.5366 36.9442 59.5366C35.8804 59.5366 34.8395 59.3078 33.8887 58.8889V67.2222H39.9998Z" fill="#7593B5"/>
<path d="M77.7776 67.2222V58.8889C76.9944 59.2386 76.1378 59.4597 75.2344 59.5191C75.0641 59.5303 74.892 59.5359 74.7224 59.5359C74.7223 59.5359 74.7223 59.5359 74.7221 59.5359C73.6323 59.5359 72.5981 59.3062 71.6665 58.8978V67.2222H77.7776Z" fill="#7593B5"/>
<path d="M66.1111 67.2222V58.8889C65.4088 59.1418 64.6601 59.2778 63.8931 59.2778H62.2181C61.4396 59.2778 60.6928 59.1418 60 58.8932V67.2222H66.1111Z" fill="#7593B5"/>
<path d="M67.8345 52.1715C67.8345 51.5867 67.3425 51.1111 66.738 51.1111H55.5557V52.9771C55.5557 56.5341 58.5655 59.4444 62.2439 59.4444H63.9101C66.2046 59.4444 68.2385 58.312 69.4446 56.5968C68.4385 55.3829 67.8345 53.8444 67.8345 52.1715Z" fill="#7593B5"/>
<path d="M60.7066 52.9771V51.1111H55.5557V52.9771C55.5557 56.5341 58.5267 59.4444 62.1579 59.4444H63.8026C64.4093 59.4444 64.9967 59.3615 65.5557 59.2096C62.7685 58.4524 60.7066 55.9398 60.7066 52.9771Z" fill="#5A81AE"/>
<path d="M28.3333 67.2222V58.8889C27.3824 59.3078 26.3415 59.5366 25.2777 59.5366C24.188 59.5366 23.1538 59.3071 22.2222 58.8988V67.2222H28.3333Z" fill="#7593B5"/>
<path d="M91.7299 35.1222C93.754 33.0252 95.0001 30.1729 95.0001 27.028C95.0001 22.5187 92.4396 18.6099 88.6943 16.6688C88.3701 16.5008 88.1791 16.1579 88.2088 15.7941C88.2337 15.4904 88.2468 15.1836 88.2468 14.8736C88.2468 8.43149 83.024 3.20938 76.5814 3.20938C74.7363 3.20938 72.9926 3.63981 71.4419 4.40302C71.0617 4.5902 70.6084 4.49558 70.336 4.17088C68.1962 1.62143 64.9869 0 61.3977 0C58.7511 0 56.312 0.883426 54.3547 2.36885C54.0289 2.61623 53.5828 2.61623 53.2569 2.36885C51.2999 0.883426 48.8608 0 46.214 0C43.341 0 40.7117 1.03938 38.6792 2.76165C41.4412 3.59691 43.4976 6.06678 43.707 9.0538C43.7948 10.3058 43.5548 11.5566 43.0131 12.6708L42.8816 12.9412H49.1293C49.6894 12.9412 50.1955 13.204 50.5185 13.6622C50.84 14.1186 50.917 14.6811 50.7296 15.2054C49.6963 18.0967 46.9378 20.0392 43.8656 20.0392C43.0987 20.0392 42.3403 19.919 41.6116 19.6822L41.3653 19.602V29.5718C41.3653 37.8586 34.6229 44.6004 26.3351 44.6004C23.1572 44.6004 20.2085 43.6064 17.7778 41.9168V51.9874C17.7778 56.0887 21.1337 59.4444 25.2356 59.4444C27.6847 59.4444 29.8673 58.2476 31.2291 56.4106C32.5909 58.2476 34.7734 59.4444 37.2226 59.4444C41.3243 59.4444 44.6804 56.0889 44.6804 51.9874C44.6804 51.491 45.083 51.0884 45.5796 51.0884H66.7381C67.2348 51.0884 67.6373 51.491 67.6373 51.9874C67.6373 56.2603 71.2797 59.7236 75.6132 59.4266C79.546 59.157 82.5529 55.7939 82.5529 51.8524V51.4863C82.5529 51.0384 82.8825 50.6567 83.3263 50.5972C88.4452 49.91 92.3928 45.5273 92.3928 40.2209C92.3928 38.7609 92.0923 37.3716 91.552 36.1093C91.4082 35.7725 91.4759 35.3854 91.7299 35.1222Z" fill="#E4F0FF"/>
<path d="M23.2698 52.0249V44.579C21.268 44.178 19.4071 43.3625 17.7778 42.2222V52.0249C17.7778 56.1056 21.0432 59.4445 25.0344 59.4445C26.0045 59.4445 26.9302 59.2444 27.7778 58.887C25.1395 57.7735 23.2698 55.1122 23.2698 52.0249Z" fill="#7593B5"/>
<path d="M51.6664 67.2222V64.7222C51.6664 63.9552 51.0448 63.3333 50.2776 63.3333C49.5103 63.3333 48.8887 63.9552 48.8887 64.7222V67.2222H51.6664Z" fill="#09A76D"/>
<path d="M89.4443 67.2222V64.7222C89.4443 63.9552 88.8226 63.3333 88.0554 63.3333C87.2882 63.3333 86.6665 63.9552 86.6665 64.7222V67.2222H89.4443Z" fill="#09A76D"/>
<path d="M18.3334 67.2222V64.7222C18.3334 63.9552 17.7116 63.3333 16.9446 63.3333C16.1775 63.3333 15.5557 63.9552 15.5557 64.7222V67.2222H18.3334Z" fill="#09A76D"/>
<path d="M48.7081 12.7778H42.6851L41.1113 14.8077V19.5846C41.8764 19.8528 42.6996 20 43.5579 20C46.7335 20 49.4365 18.0015 50.4471 15.2087C50.8759 14.024 49.9818 12.7778 48.7081 12.7778Z" fill="#7593B5"/>
<path d="M9.53715 12.7778H3.51424C2.24051 12.7778 1.34638 14.0241 1.77513 15.2086C2.78579 18.0015 5.4888 20 8.66456 20C9.52279 20 10.3459 19.8527 11.1109 19.5846V14.8076L9.53715 12.7778Z" fill="#7593B5"/>
<path d="M36.7087 16.9883C35.076 16.9883 33.5393 16.4556 32.2648 15.4476C32.0614 15.2868 31.8071 15.198 31.5489 15.198C31.2907 15.198 31.0365 15.2866 30.8331 15.4476C29.5584 16.4556 28.0219 16.9883 26.3892 16.9883C24.7564 16.9883 23.2198 16.4556 21.9453 15.4476C21.7419 15.2868 21.4877 15.198 21.2295 15.198C20.9713 15.198 20.717 15.2866 20.5134 15.4476C19.2389 16.4556 17.7022 16.9883 16.0695 16.9883C14.2223 16.9883 12.4363 16.2677 11.1113 15V29.8375C11.1113 38.1769 17.9863 45 26.3892 45C34.792 45 41.6669 38.1769 41.6669 29.8375V15C40.3421 16.2679 38.5557 16.9883 36.7087 16.9883Z" fill="#CBE2FF"/>
<path d="M15.4676 29.5643V16.5188C13.8833 16.3579 12.384 15.6608 11.2339 14.5422V29.5643C11.2339 38.0075 18.0832 44.9155 26.4547 44.9155C27.173 44.9155 27.8792 44.8622 28.5713 44.7628C21.1929 43.7149 15.4676 37.2829 15.4676 29.5643Z" fill="#7593B5"/>
<path d="M19.9938 29.2166C19.2144 29.2166 18.5825 28.5793 18.5825 27.7932V24.831C18.5825 24.045 19.2144 23.4077 19.9938 23.4077C20.7732 23.4077 21.4051 24.045 21.4051 24.831V27.7932C21.4051 28.5793 20.7732 29.2166 19.9938 29.2166Z" fill="#89A2C0"/>
<path d="M32.9157 29.2166C32.1363 29.2166 31.5044 28.5793 31.5044 27.7932V24.831C31.5044 24.045 32.1363 23.4077 32.9157 23.4077C33.6951 23.4077 34.327 24.045 34.327 24.831V27.7932C34.327 28.5793 33.6951 29.2166 32.9157 29.2166Z" fill="#89A2C0"/>
<ellipse cx="26.25" cy="35.5" rx="1.25" ry="2.5" transform="rotate(90 26.25 35.5)" stroke="#7593B5" stroke-width="2" stroke-linecap="round"/>
<path d="M37.0136 2.23243C35.1514 2.13543 33.4325 2.73603 32.097 3.79461C31.7488 4.07052 31.261 4.06903 30.9128 3.79331C29.6715 2.81012 28.0994 2.22237 26.3887 2.22237C24.6782 2.22237 23.106 2.81012 21.8647 3.79331C21.5165 4.06922 21.0287 4.07071 20.6805 3.79461C19.3448 2.73603 17.6259 2.13543 15.7635 2.23243C12.1317 2.42176 9.16121 5.31826 8.90703 8.92407C8.6094 13.148 11.9688 16.6667 16.1549 16.6667C17.8654 16.6667 19.4375 16.0789 20.6786 15.0959C21.0278 14.8195 21.5161 14.8195 21.8651 15.0959C23.1063 16.0789 24.6784 16.6667 26.3887 16.6667C28.0992 16.6667 29.6713 16.0789 30.9124 15.0959C31.2616 14.8195 31.7499 14.8195 32.0988 15.0959C33.3401 16.0789 34.9122 16.6667 36.6225 16.6667C40.8089 16.6667 44.1683 13.148 43.8703 8.92389C43.6161 5.31807 40.6454 2.42176 37.0136 2.23243Z" fill="#D7E9FF"/>
<path d="M14.481 8.92407C14.674 6.16181 16.4495 3.81732 18.8887 2.78573C17.9183 2.37652 16.8401 2.17285 15.708 2.23243C12.1056 2.42176 9.15901 5.31826 8.90689 8.92407C8.61165 13.148 11.9439 16.6667 16.0963 16.6667C17.0849 16.6667 18.0264 16.466 18.884 16.1048C16.1385 14.9501 14.256 12.1428 14.481 8.92407Z" fill="#CDE0F7"/>
<path d="M94.7032 67.1429H84.373V64.7619C84.373 63.9729 83.7428 63.3333 82.9651 63.3333C82.1874 63.3333 81.5572 63.9729 81.5572 64.7619V67.1429H56.7786V64.7619C56.7786 63.9729 56.1484 63.3333 55.3707 63.3333C54.593 63.3333 53.9628 63.9729 53.9628 64.7619V67.1429H46.6419V64.7619C46.6419 63.9729 46.0115 63.3333 45.234 63.3333C44.4565 63.3333 43.8261 63.9729 43.8261 64.7619V67.1429H13.0405V64.7619C13.0405 63.9729 12.4102 63.3333 11.6326 63.3333C10.8551 63.3333 10.2248 63.9729 10.2248 64.7619V67.1429H7.97215V64.7619C7.97215 63.9729 7.3418 63.3333 6.56428 63.3333C5.78675 63.3333 5.1564 63.9729 5.1564 64.7619V67.1429H1.40788C0.630354 67.1429 0 67.7825 0 68.5714C0 69.3604 0.630354 70 1.40788 70H94.7032C95.4809 70 96.1111 69.3604 96.1111 68.5714C96.1111 67.7825 95.4809 67.1429 94.7032 67.1429Z" fill="#60E498"/>
</svg>
